<svg width="800" height="800" viewBox="0 0 800 800" fill="none" xmlns="http://www.w3.org/2000/svg">
  <!-- Watch Body -->
  <rect x="285" y="100" width="230" height="600" rx="115" fill="#2D3748" />
  
  <!-- Watch Bezel -->
  <rect x="285" y="200" width="230" height="400" rx="50" fill="#4A5568" />
  
  <!-- Watch Screen -->
  <rect x="310" y="225" width="180" height="350" rx="25" fill="#1A202C" />
  
  <!-- Watch Button -->
  <rect x="515" y="300" width="30" height="60" rx="15" fill="#2D3748" />
  
  <!-- Ball pentagon center -->
  <circle cx="400" cy="400" r="80" fill="#2D3748" />
  
  <!-- Football hexagons - white parts -->
  <path d="M400 280 L450 320 L430 380 L370 380 L350 320 Z" fill="white" />
  <path d="M350 320 L370 380 L320 420 L300 360 Z" fill="white" />
  <path d="M450 320 L500 360 L480 420 L430 380 Z" fill="white" />
  <path d="M320 420 L370 380 L370 450 L320 490 Z" fill="white" />
  <path d="M480 420 L430 380 L430 450 L480 490 Z" fill="white" />
  <path d="M370 450 L430 450 L400 520 Z" fill="white" />
</svg> 